<svg version="1.1" xmlns="http://www.w3.org/2000/svg" xmlns:xlink="http://www.w3.org/1999/xlink" width="940" height="964"><defs/><g><text fill="#eeeeee" stroke="none" font-family="Arial" font-size="24px" font-style="normal" font-weight="normal" text-decoration="none" x="0" y="0">UNREGISTERED</text><text fill="#eeeeee" stroke="none" font-family="Arial" font-size="24px" font-style="normal" font-weight="normal" text-decoration="none" x="0" y="30">UNREGISTERED</text><text fill="#eeeeee" stroke="none" font-family="Arial" font-size="24px" font-style="normal" font-weight="normal" text-decoration="none" x="0" y="60">UNREGISTERED</text><text fill="#eeeeee" stroke="none" font-family="Arial" font-size="24px" font-style="normal" font-weight="normal" text-decoration="none" x="0" y="90">UNREGISTERED</text><text fill="#eeeeee" stroke="none" font-family="Arial" font-size="24px" font-style="normal" font-weight="normal" text-decoration="none" x="0" y="120">UNREGISTERED</text><text fill="#eeeeee" stroke="none" font-family="Arial" font-size="24px" font-style="normal" font-weight="normal" text-decoration="none" x="0" y="150">UNREGISTERED</text><text fill="#eeeeee" stroke="none" font-family="Arial" font-size="24px" font-style="normal" font-weight="normal" text-decoration="none" x="0" y="180">UNREGISTERED</text><text fill="#eeeeee" stroke="none" font-family="Arial" font-size="24px" font-style="normal" font-weight="normal" text-decoration="none" x="0" y="210">UNREGISTERED</text><text fill="#eeeeee" stroke="none" font-family="Arial" font-size="24px" font-style="normal" font-weight="normal" text-decoration="none" x="0" y="240">UNREGISTERED</text><text fill="#eeeeee" stroke="none" font-family="Arial" font-size="24px" font-style="normal" font-weight="normal" text-decoration="none" x="0" y="270">UNREGISTERED</text><text fill="#eeeeee" stroke="none" font-family="Arial" font-size="24px" font-style="normal" font-weight="normal" text-decoration="none" x="0" y="300">UNREGISTERED</text><text fill="#eeeeee" stroke="none" font-family="Arial" font-size="24px" font-style="normal" font-weight="normal" text-decoration="none" x="0" y="330">UNREGISTERED</text><text fill="#eeeeee" stroke="none" font-family="Arial" font-size="24px" font-style="normal" font-weight="normal" text-decoration="none" x="0" y="360">UNREGISTERED</text><text fill="#eeeeee" stroke="none" font-family="Arial" font-size="24px" font-style="normal" font-weight="normal" text-decoration="none" x="0" y="390">UNREGISTERED</text><text fill="#eeeeee" stroke="none" font-family="Arial" font-size="24px" font-style="normal" font-weight="normal" text-decoration="none" x="0" y="420">UNREGISTERED</text><text fill="#eeeeee" stroke="none" font-family="Arial" font-size="24px" font-style="normal" font-weight="normal" text-decoration="none" x="0" y="450">UNREGISTERED</text><text fill="#eeeeee" stroke="none" font-family="Arial" font-size="24px" font-style="normal" font-weight="normal" text-decoration="none" x="0" y="480">UNREGISTERED</text><text fill="#eeeeee" stroke="none" font-family="Arial" font-size="24px" font-style="normal" font-weight="normal" text-decoration="none" x="0" y="510">UNREGISTERED</text><text fill="#eeeeee" stroke="none" font-family="Arial" font-size="24px" font-style="normal" font-weight="normal" text-decoration="none" x="0" y="540">UNREGISTERED</text><text fill="#eeeeee" stroke="none" font-family="Arial" font-size="24px" font-style="normal" font-weight="normal" text-decoration="none" x="0" y="570">UNREGISTERED</text><text fill="#eeeeee" stroke="none" font-family="Arial" font-size="24px" font-style="normal" font-weight="normal" text-decoration="none" x="0" y="600">UNREGISTERED</text><text fill="#eeeeee" stroke="none" font-family="Arial" font-size="24px" font-style="normal" font-weight="normal" text-decoration="none" x="0" y="630">UNREGISTERED</text><text fill="#eeeeee" stroke="none" font-family="Arial" font-size="24px" font-style="normal" font-weight="normal" text-decoration="none" x="0" y="660">UNREGISTERED</text><text fill="#eeeeee" stroke="none" font-family="Arial" font-size="24px" font-style="normal" font-weight="normal" text-decoration="none" x="0" y="690">UNREGISTERED</text><text fill="#eeeeee" stroke="none" font-family="Arial" font-size="24px" font-style="normal" font-weight="normal" text-decoration="none" x="0" y="720">UNREGISTERED</text><text fill="#eeeeee" stroke="none" font-family="Arial" font-size="24px" font-style="normal" font-weight="normal" text-decoration="none" x="0" y="750">UNREGISTERED</text><text fill="#eeeeee" stroke="none" font-family="Arial" font-size="24px" font-style="normal" font-weight="normal" text-decoration="none" x="0" y="780">UNREGISTERED</text><text fill="#eeeeee" stroke="none" font-family="Arial" font-size="24px" font-style="normal" font-weight="normal" text-decoration="none" x="0" y="810">UNREGISTERED</text><text fill="#eeeeee" stroke="none" font-family="Arial" font-size="24px" font-style="normal" font-weight="normal" text-decoration="none" x="0" y="840">UNREGISTERED</text><text fill="#eeeeee" stroke="none" font-family="Arial" font-size="24px" font-style="normal" font-weight="normal" text-decoration="none" x="0" y="870">UNREGISTERED</text><text fill="#eeeeee" stroke="none" font-family="Arial" font-size="24px" font-style="normal" font-weight="normal" text-decoration="none" x="0" y="900">UNREGISTERED</text><text fill="#eeeeee" stroke="none" font-family="Arial" font-size="24px" font-style="normal" font-weight="normal" text-decoration="none" x="0" y="930">UNREGISTERED</text><text fill="#eeeeee" stroke="none" font-family="Arial" font-size="24px" font-style="normal" font-weight="normal" text-decoration="none" x="0" y="960">UNREGISTERED</text><text fill="#eeeeee" stroke="none" font-family="Arial" font-size="24px" font-style="normal" font-weight="normal" text-decoration="none" x="200" y="0">UNREGISTERED</text><text fill="#eeeeee" stroke="none" font-family="Arial" font-size="24px" font-style="normal" font-weight="normal" text-decoration="none" x="200" y="30">UNREGISTERED</text><text fill="#eeeeee" stroke="none" font-family="Arial" font-size="24px" font-style="normal" font-weight="normal" text-decoration="none" x="200" y="60">UNREGISTERED</text><text fill="#eeeeee" stroke="none" font-family="Arial" font-size="24px" font-style="normal" font-weight="normal" text-decoration="none" x="200" y="90">UNREGISTERED</text><text fill="#eeeeee" stroke="none" font-family="Arial" font-size="24px" font-style="normal" font-weight="normal" text-decoration="none" x="200" y="120">UNREGISTERED</text><text fill="#eeeeee" stroke="none" font-family="Arial" font-size="24px" font-style="normal" font-weight="normal" text-decoration="none" x="200" y="150">UNREGISTERED</text><text fill="#eeeeee" stroke="none" font-family="Arial" font-size="24px" font-style="normal" font-weight="normal" text-decoration="none" x="200" y="180">UNREGISTERED</text><text fill="#eeeeee" stroke="none" font-family="Arial" font-size="24px" font-style="normal" font-weight="normal" text-decoration="none" x="200" y="210">UNREGISTERED</text><text fill="#eeeeee" stroke="none" font-family="Arial" font-size="24px" font-style="normal" font-weight="normal" text-decoration="none" x="200" y="240">UNREGISTERED</text><text fill="#eeeeee" stroke="none" font-family="Arial" font-size="24px" font-style="normal" font-weight="normal" text-decoration="none" x="200" y="270">UNREGISTERED</text><text fill="#eeeeee" stroke="none" font-family="Arial" font-size="24px" font-style="normal" font-weight="normal" text-decoration="none" x="200" y="300">UNREGISTERED</text><text fill="#eeeeee" stroke="none" font-family="Arial" font-size="24px" font-style="normal" font-weight="normal" text-decoration="none" x="200" y="330">UNREGISTERED</text><text fill="#eeeeee" stroke="none" font-family="Arial" font-size="24px" font-style="normal" font-weight="normal" text-decoration="none" x="200" y="360">UNREGISTERED</text><text fill="#eeeeee" stroke="none" font-family="Arial" font-size="24px" font-style="normal" font-weight="normal" text-decoration="none" x="200" y="390">UNREGISTERED</text><text fill="#eeeeee" stroke="none" font-family="Arial" font-size="24px" font-style="normal" font-weight="normal" text-decoration="none" x="200" y="420">UNREGISTERED</text><text fill="#eeeeee" stroke="none" font-family="Arial" font-size="24px" font-style="normal" font-weight="normal" text-decoration="none" x="200" y="450">UNREGISTERED</text><text fill="#eeeeee" stroke="none" font-family="Arial" font-size="24px" font-style="normal" font-weight="normal" text-decoration="none" x="200" y="480">UNREGISTERED</text><text fill="#eeeeee" stroke="none" font-family="Arial" font-size="24px" font-style="normal" font-weight="normal" text-decoration="none" x="200" y="510">UNREGISTERED</text><text fill="#eeeeee" stroke="none" font-family="Arial" font-size="24px" font-style="normal" font-weight="normal" text-decoration="none" x="200" y="540">UNREGISTERED</text><text fill="#eeeeee" stroke="none" font-family="Arial" font-size="24px" font-style="normal" font-weight="normal" text-decoration="none" x="200" y="570">UNREGISTERED</text><text fill="#eeeeee" stroke="none" font-family="Arial" font-size="24px" font-style="normal" font-weight="normal" text-decoration="none" x="200" y="600">UNREGISTERED</text><text fill="#eeeeee" stroke="none" font-family="Arial" font-size="24px" font-style="normal" font-weight="normal" text-decoration="none" x="200" y="630">UNREGISTERED</text><text fill="#eeeeee" stroke="none" font-family="Arial" font-size="24px" font-style="normal" font-weight="normal" text-decoration="none" x="200" y="660">UNREGISTERED</text><text fill="#eeeeee" stroke="none" font-family="Arial" font-size="24px" font-style="normal" font-weight="normal" text-decoration="none" x="200" y="690">UNREGISTERED</text><text fill="#eeeeee" stroke="none" font-family="Arial" font-size="24px" font-style="normal" font-weight="normal" text-decoration="none" x="200" y="720">UNREGISTERED</text><text fill="#eeeeee" stroke="none" font-family="Arial" font-size="24px" font-style="normal" font-weight="normal" text-decoration="none" x="200" y="750">UNREGISTERED</text><text fill="#eeeeee" stroke="none" font-family="Arial" font-size="24px" font-style="normal" font-weight="normal" text-decoration="none" x="200" y="780">UNREGISTERED</text><text fill="#eeeeee" stroke="none" font-family="Arial" font-size="24px" font-style="normal" font-weight="normal" text-decoration="none" x="200" y="810">UNREGISTERED</text><text fill="#eeeeee" stroke="none" font-family="Arial" font-size="24px" font-style="normal" font-weight="normal" text-decoration="none" x="200" y="840">UNREGISTERED</text><text fill="#eeeeee" stroke="none" font-family="Arial" font-size="24px" font-style="normal" font-weight="normal" text-decoration="none" x="200" y="870">UNREGISTERED</text><text fill="#eeeeee" stroke="none" font-family="Arial" font-size="24px" font-style="normal" font-weight="normal" text-decoration="none" x="200" y="900">UNREGISTERED</text><text fill="#eeeeee" stroke="none" font-family="Arial" font-size="24px" font-style="normal" font-weight="normal" text-decoration="none" x="200" y="930">UNREGISTERED</text><text fill="#eeeeee" stroke="none" font-family="Arial" font-size="24px" font-style="normal" font-weight="normal" text-decoration="none" x="200" y="960">UNREGISTERED</text><text fill="#eeeeee" stroke="none" font-family="Arial" font-size="24px" font-style="normal" font-weight="normal" text-decoration="none" x="400" y="0">UNREGISTERED</text><text fill="#eeeeee" stroke="none" font-family="Arial" font-size="24px" font-style="normal" font-weight="normal" text-decoration="none" x="400" y="30">UNREGISTERED</text><text fill="#eeeeee" stroke="none" font-family="Arial" font-size="24px" font-style="normal" font-weight="normal" text-decoration="none" x="400" y="60">UNREGISTERED</text><text fill="#eeeeee" stroke="none" font-family="Arial" font-size="24px" font-style="normal" font-weight="normal" text-decoration="none" x="400" y="90">UNREGISTERED</text><text fill="#eeeeee" stroke="none" font-family="Arial" font-size="24px" font-style="normal" font-weight="normal" text-decoration="none" x="400" y="120">UNREGISTERED</text><text fill="#eeeeee" stroke="none" font-family="Arial" font-size="24px" font-style="normal" font-weight="normal" text-decoration="none" x="400" y="150">UNREGISTERED</text><text fill="#eeeeee" stroke="none" font-family="Arial" font-size="24px" font-style="normal" font-weight="normal" text-decoration="none" x="400" y="180">UNREGISTERED</text><text fill="#eeeeee" stroke="none" font-family="Arial" font-size="24px" font-style="normal" font-weight="normal" text-decoration="none" x="400" y="210">UNREGISTERED</text><text fill="#eeeeee" stroke="none" font-family="Arial" font-size="24px" font-style="normal" font-weight="normal" text-decoration="none" x="400" y="240">UNREGISTERED</text><text fill="#eeeeee" stroke="none" font-family="Arial" font-size="24px" font-style="normal" font-weight="normal" text-decoration="none" x="400" y="270">UNREGISTERED</text><text fill="#eeeeee" stroke="none" font-family="Arial" font-size="24px" font-style="normal" font-weight="normal" text-decoration="none" x="400" y="300">UNREGISTERED</text><text fill="#eeeeee" stroke="none" font-family="Arial" font-size="24px" font-style="normal" font-weight="normal" text-decoration="none" x="400" y="330">UNREGISTERED</text><text fill="#eeeeee" stroke="none" font-family="Arial" font-size="24px" font-style="normal" font-weight="normal" text-decoration="none" x="400" y="360">UNREGISTERED</text><text fill="#eeeeee" stroke="none" font-family="Arial" font-size="24px" font-style="normal" font-weight="normal" text-decoration="none" x="400" y="390">UNREGISTERED</text><text fill="#eeeeee" stroke="none" font-family="Arial" font-size="24px" font-style="normal" font-weight="normal" text-decoration="none" x="400" y="420">UNREGISTERED</text><text fill="#eeeeee" stroke="none" font-family="Arial" font-size="24px" font-style="normal" font-weight="normal" text-decoration="none" x="400" y="450">UNREGISTERED</text><text fill="#eeeeee" stroke="none" font-family="Arial" font-size="24px" font-style="normal" font-weight="normal" text-decoration="none" x="400" y="480">UNREGISTERED</text><text fill="#eeeeee" stroke="none" font-family="Arial" font-size="24px" font-style="normal" font-weight="normal" text-decoration="none" x="400" y="510">UNREGISTERED</text><text fill="#eeeeee" stroke="none" font-family="Arial" font-size="24px" font-style="normal" font-weight="normal" text-decoration="none" x="400" y="540">UNREGISTERED</text><text fill="#eeeeee" stroke="none" font-family="Arial" font-size="24px" font-style="normal" font-weight="normal" text-decoration="none" x="400" y="570">UNREGISTERED</text><text fill="#eeeeee" stroke="none" font-family="Arial" font-size="24px" font-style="normal" font-weight="normal" text-decoration="none" x="400" y="600">UNREGISTERED</text><text fill="#eeeeee" stroke="none" font-family="Arial" font-size="24px" font-style="normal" font-weight="normal" text-decoration="none" x="400" y="630">UNREGISTERED</text><text fill="#eeeeee" stroke="none" font-family="Arial" font-size="24px" font-style="normal" font-weight="normal" text-decoration="none" x="400" y="660">UNREGISTERED</text><text fill="#eeeeee" stroke="none" font-family="Arial" font-size="24px" font-style="normal" font-weight="normal" text-decoration="none" x="400" y="690">UNREGISTERED</text><text fill="#eeeeee" stroke="none" font-family="Arial" font-size="24px" font-style="normal" font-weight="normal" text-decoration="none" x="400" y="720">UNREGISTERED</text><text fill="#eeeeee" stroke="none" font-family="Arial" font-size="24px" font-style="normal" font-weight="normal" text-decoration="none" x="400" y="750">UNREGISTERED</text><text fill="#eeeeee" stroke="none" font-family="Arial" font-size="24px" font-style="normal" font-weight="normal" text-decoration="none" x="400" y="780">UNREGISTERED</text><text fill="#eeeeee" stroke="none" font-family="Arial" font-size="24px" font-style="normal" font-weight="normal" text-decoration="none" x="400" y="810">UNREGISTERED</text><text fill="#eeeeee" stroke="none" font-family="Arial" font-size="24px" font-style="normal" font-weight="normal" text-decoration="none" x="400" y="840">UNREGISTERED</text><text fill="#eeeeee" stroke="none" font-family="Arial" font-size="24px" font-style="normal" font-weight="normal" text-decoration="none" x="400" y="870">UNREGISTERED</text><text fill="#eeeeee" stroke="none" font-family="Arial" font-size="24px" font-style="normal" font-weight="normal" text-decoration="none" x="400" y="900">UNREGISTERED</text><text fill="#eeeeee" stroke="none" font-family="Arial" font-size="24px" font-style="normal" font-weight="normal" text-decoration="none" x="400" y="930">UNREGISTERED</text><text fill="#eeeeee" stroke="none" font-family="Arial" font-size="24px" font-style="normal" font-weight="normal" text-decoration="none" x="400" y="960">UNREGISTERED</text><text fill="#eeeeee" stroke="none" font-family="Arial" font-size="24px" font-style="normal" font-weight="normal" text-decoration="none" x="600" y="0">UNREGISTERED</text><text fill="#eeeeee" stroke="none" font-family="Arial" font-size="24px" font-style="normal" font-weight="normal" text-decoration="none" x="600" y="30">UNREGISTERED</text><text fill="#eeeeee" stroke="none" font-family="Arial" font-size="24px" font-style="normal" font-weight="normal" text-decoration="none" x="600" y="60">UNREGISTERED</text><text fill="#eeeeee" stroke="none" font-family="Arial" font-size="24px" font-style="normal" font-weight="normal" text-decoration="none" x="600" y="90">UNREGISTERED</text><text fill="#eeeeee" stroke="none" font-family="Arial" font-size="24px" font-style="normal" font-weight="normal" text-decoration="none" x="600" y="120">UNREGISTERED</text><text fill="#eeeeee" stroke="none" font-family="Arial" font-size="24px" font-style="normal" font-weight="normal" text-decoration="none" x="600" y="150">UNREGISTERED</text><text fill="#eeeeee" stroke="none" font-family="Arial" font-size="24px" font-style="normal" font-weight="normal" text-decoration="none" x="600" y="180">UNREGISTERED</text><text fill="#eeeeee" stroke="none" font-family="Arial" font-size="24px" font-style="normal" font-weight="normal" text-decoration="none" x="600" y="210">UNREGISTERED</text><text fill="#eeeeee" stroke="none" font-family="Arial" font-size="24px" font-style="normal" font-weight="normal" text-decoration="none" x="600" y="240">UNREGISTERED</text><text fill="#eeeeee" stroke="none" font-family="Arial" font-size="24px" font-style="normal" font-weight="normal" text-decoration="none" x="600" y="270">UNREGISTERED</text><text fill="#eeeeee" stroke="none" font-family="Arial" font-size="24px" font-style="normal" font-weight="normal" text-decoration="none" x="600" y="300">UNREGISTERED</text><text fill="#eeeeee" stroke="none" font-family="Arial" font-size="24px" font-style="normal" font-weight="normal" text-decoration="none" x="600" y="330">UNREGISTERED</text><text fill="#eeeeee" stroke="none" font-family="Arial" font-size="24px" font-style="normal" font-weight="normal" text-decoration="none" x="600" y="360">UNREGISTERED</text><text fill="#eeeeee" stroke="none" font-family="Arial" font-size="24px" font-style="normal" font-weight="normal" text-decoration="none" x="600" y="390">UNREGISTERED</text><text fill="#eeeeee" stroke="none" font-family="Arial" font-size="24px" font-style="normal" font-weight="normal" text-decoration="none" x="600" y="420">UNREGISTERED</text><text fill="#eeeeee" stroke="none" font-family="Arial" font-size="24px" font-style="normal" font-weight="normal" text-decoration="none" x="600" y="450">UNREGISTERED</text><text fill="#eeeeee" stroke="none" font-family="Arial" font-size="24px" font-style="normal" font-weight="normal" text-decoration="none" x="600" y="480">UNREGISTERED</text><text fill="#eeeeee" stroke="none" font-family="Arial" font-size="24px" font-style="normal" font-weight="normal" text-decoration="none" x="600" y="510">UNREGISTERED</text><text fill="#eeeeee" stroke="none" font-family="Arial" font-size="24px" font-style="normal" font-weight="normal" text-decoration="none" x="600" y="540">UNREGISTERED</text><text fill="#eeeeee" stroke="none" font-family="Arial" font-size="24px" font-style="normal" font-weight="normal" text-decoration="none" x="600" y="570">UNREGISTERED</text><text fill="#eeeeee" stroke="none" font-family="Arial" font-size="24px" font-style="normal" font-weight="normal" text-decoration="none" x="600" y="600">UNREGISTERED</text><text fill="#eeeeee" stroke="none" font-family="Arial" font-size="24px" font-style="normal" font-weight="normal" text-decoration="none" x="600" y="630">UNREGISTERED</text><text fill="#eeeeee" stroke="none" font-family="Arial" font-size="24px" font-style="normal" font-weight="normal" text-decoration="none" x="600" y="660">UNREGISTERED</text><text fill="#eeeeee" stroke="none" font-family="Arial" font-size="24px" font-style="normal" font-weight="normal" text-decoration="none" x="600" y="690">UNREGISTERED</text><text fill="#eeeeee" stroke="none" font-family="Arial" font-size="24px" font-style="normal" font-weight="normal" text-decoration="none" x="600" y="720">UNREGISTERED</text><text fill="#eeeeee" stroke="none" font-family="Arial" font-size="24px" font-style="normal" font-weight="normal" text-decoration="none" x="600" y="750">UNREGISTERED</text><text fill="#eeeeee" stroke="none" font-family="Arial" font-size="24px" font-style="normal" font-weight="normal" text-decoration="none" x="600" y="780">UNREGISTERED</text><text fill="#eeeeee" stroke="none" font-family="Arial" font-size="24px" font-style="normal" font-weight="normal" text-decoration="none" x="600" y="810">UNREGISTERED</text><text fill="#eeeeee" stroke="none" font-family="Arial" font-size="24px" font-style="normal" font-weight="normal" text-decoration="none" x="600" y="840">UNREGISTERED</text><text fill="#eeeeee" stroke="none" font-family="Arial" font-size="24px" font-style="normal" font-weight="normal" text-decoration="none" x="600" y="870">UNREGISTERED</text><text fill="#eeeeee" stroke="none" font-family="Arial" font-size="24px" font-style="normal" font-weight="normal" text-decoration="none" x="600" y="900">UNREGISTERED</text><text fill="#eeeeee" stroke="none" font-family="Arial" font-size="24px" font-style="normal" font-weight="normal" text-decoration="none" x="600" y="930">UNREGISTERED</text><text fill="#eeeeee" stroke="none" font-family="Arial" font-size="24px" font-style="normal" font-weight="normal" text-decoration="none" x="600" y="960">UNREGISTERED</text><text fill="#eeeeee" stroke="none" font-family="Arial" font-size="24px" font-style="normal" font-weight="normal" text-decoration="none" x="800" y="0">UNREGISTERED</text><text fill="#eeeeee" stroke="none" font-family="Arial" font-size="24px" font-style="normal" font-weight="normal" text-decoration="none" x="800" y="30">UNREGISTERED</text><text fill="#eeeeee" stroke="none" font-family="Arial" font-size="24px" font-style="normal" font-weight="normal" text-decoration="none" x="800" y="60">UNREGISTERED</text><text fill="#eeeeee" stroke="none" font-family="Arial" font-size="24px" font-style="normal" font-weight="normal" text-decoration="none" x="800" y="90">UNREGISTERED</text><text fill="#eeeeee" stroke="none" font-family="Arial" font-size="24px" font-style="normal" font-weight="normal" text-decoration="none" x="800" y="120">UNREGISTERED</text><text fill="#eeeeee" stroke="none" font-family="Arial" font-size="24px" font-style="normal" font-weight="normal" text-decoration="none" x="800" y="150">UNREGISTERED</text><text fill="#eeeeee" stroke="none" font-family="Arial" font-size="24px" font-style="normal" font-weight="normal" text-decoration="none" x="800" y="180">UNREGISTERED</text><text fill="#eeeeee" stroke="none" font-family="Arial" font-size="24px" font-style="normal" font-weight="normal" text-decoration="none" x="800" y="210">UNREGISTERED</text><text fill="#eeeeee" stroke="none" font-family="Arial" font-size="24px" font-style="normal" font-weight="normal" text-decoration="none" x="800" y="240">UNREGISTERED</text><text fill="#eeeeee" stroke="none" font-family="Arial" font-size="24px" font-style="normal" font-weight="normal" text-decoration="none" x="800" y="270">UNREGISTERED</text><text fill="#eeeeee" stroke="none" font-family="Arial" font-size="24px" font-style="normal" font-weight="normal" text-decoration="none" x="800" y="300">UNREGISTERED</text><text fill="#eeeeee" stroke="none" font-family="Arial" font-size="24px" font-style="normal" font-weight="normal" text-decoration="none" x="800" y="330">UNREGISTERED</text><text fill="#eeeeee" stroke="none" font-family="Arial" font-size="24px" font-style="normal" font-weight="normal" text-decoration="none" x="800" y="360">UNREGISTERED</text><text fill="#eeeeee" stroke="none" font-family="Arial" font-size="24px" font-style="normal" font-weight="normal" text-decoration="none" x="800" y="390">UNREGISTERED</text><text fill="#eeeeee" stroke="none" font-family="Arial" font-size="24px" font-style="normal" font-weight="normal" text-decoration="none" x="800" y="420">UNREGISTERED</text><text fill="#eeeeee" stroke="none" font-family="Arial" font-size="24px" font-style="normal" font-weight="normal" text-decoration="none" x="800" y="450">UNREGISTERED</text><text fill="#eeeeee" stroke="none" font-family="Arial" font-size="24px" font-style="normal" font-weight="normal" text-decoration="none" x="800" y="480">UNREGISTERED</text><text fill="#eeeeee" stroke="none" font-family="Arial" font-size="24px" font-style="normal" font-weight="normal" text-decoration="none" x="800" y="510">UNREGISTERED</text><text fill="#eeeeee" stroke="none" font-family="Arial" font-size="24px" font-style="normal" font-weight="normal" text-decoration="none" x="800" y="540">UNREGISTERED</text><text fill="#eeeeee" stroke="none" font-family="Arial" font-size="24px" font-style="normal" font-weight="normal" text-decoration="none" x="800" y="570">UNREGISTERED</text><text fill="#eeeeee" stroke="none" font-family="Arial" font-size="24px" font-style="normal" font-weight="normal" text-decoration="none" x="800" y="600">UNREGISTERED</text><text fill="#eeeeee" stroke="none" font-family="Arial" font-size="24px" font-style="normal" font-weight="normal" text-decoration="none" x="800" y="630">UNREGISTERED</text><text fill="#eeeeee" stroke="none" font-family="Arial" font-size="24px" font-style="normal" font-weight="normal" text-decoration="none" x="800" y="660">UNREGISTERED</text><text fill="#eeeeee" stroke="none" font-family="Arial" font-size="24px" font-style="normal" font-weight="normal" text-decoration="none" x="800" y="690">UNREGISTERED</text><text fill="#eeeeee" stroke="none" font-family="Arial" font-size="24px" font-style="normal" font-weight="normal" text-decoration="none" x="800" y="720">UNREGISTERED</text><text fill="#eeeeee" stroke="none" font-family="Arial" font-size="24px" font-style="normal" font-weight="normal" text-decoration="none" x="800" y="750">UNREGISTERED</text><text fill="#eeeeee" stroke="none" font-family="Arial" font-size="24px" font-style="normal" font-weight="normal" text-decoration="none" x="800" y="780">UNREGISTERED</text><text fill="#eeeeee" stroke="none" font-family="Arial" font-size="24px" font-style="normal" font-weight="normal" text-decoration="none" x="800" y="810">UNREGISTERED</text><text fill="#eeeeee" stroke="none" font-family="Arial" font-size="24px" font-style="normal" font-weight="normal" text-decoration="none" x="800" y="840">UNREGISTERED</text><text fill="#eeeeee" stroke="none" font-family="Arial" font-size="24px" font-style="normal" font-weight="normal" text-decoration="none" x="800" y="870">UNREGISTERED</text><text fill="#eeeeee" stroke="none" font-family="Arial" font-size="24px" font-style="normal" font-weight="normal" text-decoration="none" x="800" y="900">UNREGISTERED</text><text fill="#eeeeee" stroke="none" font-family="Arial" font-size="24px" font-style="normal" font-weight="normal" text-decoration="none" x="800" y="930">UNREGISTERED</text><text fill="#eeeeee" stroke="none" font-family="Arial" font-size="24px" font-style="normal" font-weight="normal" text-decoration="none" x="800" y="960">UNREGISTERED</text><g transform="translate(-374,-134) scale(1,1)"><rect fill="#ffffff" stroke="none" x="384" y="144" width="432" height="21"/></g><g transform="translate(-374,-134) scale(1,1)"><path fill="none" stroke="#000000" d="M 384 144 L 816 144 L 816 165 L 384 165 L 384 144 Z Z" stroke-miterlimit="10" stroke-width="2"/></g><g transform="translate(-374,-134) scale(1,1)"><path fill="none" stroke="#000000" d="M 384 1088 L 384 144 L 816 144 L 816 1088" stroke-miterlimit="10" stroke-width="2"/></g><g transform="translate(-374,-134) scale(1,1)"><g><path fill="none" stroke="none"/><text fill="#000000" stroke="none" font-family="Arial" font-size="13px" font-style="normal" font-weight="normal" text-decoration="none" x="571.102294921875" y="161">Utilisateur</text></g></g><g transform="translate(-374,-134) scale(1,1)"><rect fill="#ffffff" stroke="none" x="816" y="144" width="488" height="21"/></g><g transform="translate(-374,-134) scale(1,1)"><path fill="none" stroke="#000000" d="M 816 144 L 1304 144 L 1304 165 L 816 165 L 816 144 Z Z" stroke-miterlimit="10" stroke-width="2"/></g><g transform="translate(-374,-134) scale(1,1)"><path fill="none" stroke="#000000" d="M 816 1088 L 816 144 L 1304 144 L 1304 1088" stroke-miterlimit="10" stroke-width="2"/></g><g transform="translate(-374,-134) scale(1,1)"><g><path fill="none" stroke="none"/><text fill="#000000" stroke="none" font-family="Arial" font-size="13px" font-style="normal" font-weight="normal" text-decoration="none" x="1048.799560546875" y="161">Site</text></g></g><g transform="translate(-374,-134) scale(1,1)"><path fill="#C0C0C0" stroke="none" d="M 569 271 L 669 271 Q 679 271 679 281 L 679 301 Q 679 311 669 311 L 569 311 Q 559 311 559 301 L 559 281 Q 559 271 569 271 Z" opacity="0.2"/></g><g transform="translate(-374,-134) scale(1,1)"><path fill="#ffffff" stroke="none" d="M 562 264 L 662 264 Q 672 264 672 274 L 672 294 Q 672 304 662 304 L 562 304 Q 552 304 552 294 L 552 274 Q 552 264 562 264 Z"/></g><g transform="translate(-374,-134) scale(1,1)"><path fill="none" stroke="#000000" d="M 562 264 L 662 264 Q 672 264 672 274 L 672 294 Q 672 304 662 304 L 562 304 Q 552 304 552 294 L 552 274 Q 552 264 562 264 Z" stroke-miterlimit="10"/></g><g transform="translate(-374,-134) scale(1,1)"><g><path fill="none" stroke="none"/><text fill="#000000" stroke="none" font-family="Arial" font-size="13px" font-style="normal" font-weight="bold" text-decoration="none" x="567.1982421875" y="283.5">Acceder au site</text></g></g><g transform="translate(-374,-134) scale(1,1)"><path fill="none" stroke="#000000" d="M 601 211 L 601 264" stroke-miterlimit="10"/></g><g transform="translate(-374,-134) scale(1,1)"><path fill="none" stroke="#000000" d="M 596.790482243984 253.83732514237585 L 601 264 L 605.209517756016 253.83732514237585" stroke-miterlimit="10"/></g><g transform="translate(-374,-134) scale(1,1)"><path fill="#C0C0C0" stroke="none" d="M 425 407 L 605 407 Q 615 407 615 417 L 615 437 Q 615 447 605 447 L 425 447 Q 415 447 415 437 L 415 417 Q 415 407 425 407 Z" opacity="0.2"/></g><g transform="translate(-374,-134) scale(1,1)"><path fill="#ffffff" stroke="none" d="M 418 400 L 598 400 Q 608 400 608 410 L 608 430 Q 608 440 598 440 L 418 440 Q 408 440 408 430 L 408 410 Q 408 400 418 400 Z"/></g><g transform="translate(-374,-134) scale(1,1)"><path fill="none" stroke="#000000" d="M 418 400 L 598 400 Q 608 400 608 410 L 608 430 Q 608 440 598 440 L 418 440 Q 408 440 408 430 L 408 410 Q 408 400 418 400 Z" stroke-miterlimit="10"/></g><g transform="translate(-374,-134) scale(1,1)"><g><path fill="none" stroke="none"/><text fill="#000000" stroke="none" font-family="Arial" font-size="13px" font-style="normal" font-weight="bold" text-decoration="none" x="426.188232421875" y="419.5">Rentrer un nom d'invocateur</text></g></g><g transform="translate(-374,-134) scale(1,1)"><path fill="none" stroke="#000000" d="M 603 304 L 603 360" stroke-miterlimit="10"/></g><g transform="translate(-374,-134) scale(1,1)"><path fill="none" stroke="#000000" d="M 598.790482243984 349.83732514237585 L 603 360 L 607.209517756016 349.83732514237585" stroke-miterlimit="10"/></g><g transform="translate(-374,-134) scale(1,1)"><path fill="#C0C0C0" stroke="none" d="M 599 208.5 C 599 203.2532944 603.2532944 199 608.5 199 C 613.7467056 199 618 203.2532944 618 208.5 C 618 213.7467056 613.7467056 218 608.5 218 C 603.2532944 218 599 213.7467056 599 208.5 Z" opacity="0.2"/></g><g transform="translate(-374,-134) scale(1,1)"><path fill="#000000" stroke="none" d="M 592 201.5 C 592 196.2532944 596.2532944 192 601.5 192 C 606.7467056 192 611 196.2532944 611 201.5 C 611 206.7467056 606.7467056 211 601.5 211 C 596.2532944 211 592 206.7467056 592 201.5 Z"/></g><g transform="translate(-374,-134) scale(1,1)"><path fill="#C0C0C0" stroke="none" d="M 578 367 L 641 367 Q 644 367 644 370 L 644 369 Q 644 372 641 372 L 578 372 Q 575 372 575 369 L 575 370 Q 575 367 578 367 Z" opacity="0.2"/></g><g transform="translate(-374,-134) scale(1,1)"><path fill="#000000" stroke="none" d="M 571 360 L 634 360 Q 637 360 637 363 L 637 363 Q 637 366 634 366 L 571 366 Q 568 366 568 363 L 568 363 Q 568 360 571 360 Z"/></g><g transform="translate(-374,-134) scale(1,1)"><path fill="none" stroke="#000000" d="M 568 362 L 504 362 L 504 400" stroke-miterlimit="10"/></g><g transform="translate(-374,-134) scale(1,1)"><path fill="none" stroke="#000000" d="M 499.790482243984 389.83732514237585 L 504 400 L 508.209517756016 389.83732514237585" stroke-miterlimit="10"/></g><g transform="translate(-374,-134) scale(1,1)"><path fill="none" stroke="#000000" d="M 637 360 L 712 360 L 712 400" stroke-miterlimit="10"/></g><g transform="translate(-374,-134) scale(1,1)"><path fill="none" stroke="#000000" d="M 707.790482243984 389.83732514237585 L 712 400 L 716.209517756016 389.83732514237585" stroke-miterlimit="10"/></g><g transform="translate(-374,-134) scale(1,1)"><path fill="#C0C0C0" stroke="none" d="M 561 559 L 693 559 Q 703 559 703 569 L 703 589 Q 703 599 693 599 L 561 599 Q 551 599 551 589 L 551 569 Q 551 559 561 559 Z" opacity="0.2"/></g><g transform="translate(-374,-134) scale(1,1)"><path fill="#ffffff" stroke="none" d="M 554 552 L 686 552 Q 696 552 696 562 L 696 582 Q 696 592 686 592 L 554 592 Q 544 592 544 582 L 544 562 Q 544 552 554 552 Z"/></g><g transform="translate(-374,-134) scale(1,1)"><path fill="none" stroke="#000000" d="M 554 552 L 686 552 Q 696 552 696 562 L 696 582 Q 696 592 686 592 L 554 592 Q 544 592 544 582 L 544 562 Q 544 552 554 552 Z" stroke-miterlimit="10"/></g><g transform="translate(-374,-134) scale(1,1)"><g><path fill="none" stroke="none"/><text fill="#000000" stroke="none" font-family="Arial" font-size="13px" font-style="normal" font-weight="bold" text-decoration="none" x="558.58642578125" y="571.5">Envoyer le formulaire</text></g></g><g transform="translate(-374,-134) scale(1,1)"><path fill="#C0C0C0" stroke="none" d="M 649 407 L 797 407 Q 807 407 807 417 L 807 437 Q 807 447 797 447 L 649 447 Q 639 447 639 437 L 639 417 Q 639 407 649 407 Z" opacity="0.2"/></g><g transform="translate(-374,-134) scale(1,1)"><path fill="#ffffff" stroke="none" d="M 642 400 L 790 400 Q 800 400 800 410 L 800 430 Q 800 440 790 440 L 642 440 Q 632 440 632 430 L 632 410 Q 632 400 642 400 Z"/></g><g transform="translate(-374,-134) scale(1,1)"><path fill="none" stroke="#000000" d="M 642 400 L 790 400 Q 800 400 800 410 L 800 430 Q 800 440 790 440 L 642 440 Q 632 440 632 430 L 632 410 Q 632 400 642 400 Z" stroke-miterlimit="10"/></g><g transform="translate(-374,-134) scale(1,1)"><g><path fill="none" stroke="none"/><text fill="#000000" stroke="none" font-family="Arial" font-size="13px" font-style="normal" font-weight="bold" text-decoration="none" x="647.35009765625" y="419.5">Selectionner un serveur</text></g></g><g transform="translate(-374,-134) scale(1,1)"><path fill="#C0C0C0" stroke="none" d="M 586 503 L 649 503 Q 652 503 652 506 L 652 505 Q 652 508 649 508 L 586 508 Q 583 508 583 505 L 583 506 Q 583 503 586 503 Z" opacity="0.2"/></g><g transform="translate(-374,-134) scale(1,1)"><path fill="#000000" stroke="none" d="M 579 496 L 642 496 Q 645 496 645 499 L 645 499 Q 645 502 642 502 L 579 502 Q 576 502 576 499 L 576 499 Q 576 496 579 496 Z"/></g><g transform="translate(-374,-134) scale(1,1)"><path fill="#C0C0C0" stroke="none" d="M 586 503 L 652 503 Q 655 503 655 506 L 655 505 Q 655 508 652 508 L 586 508 Q 583 508 583 505 L 583 506 Q 583 503 586 503 Z" opacity="0.2"/></g><g transform="translate(-374,-134) scale(1,1)"><path fill="#000000" stroke="none" d="M 579 496 L 645 496 Q 648 496 648 499 L 648 499 Q 648 502 645 502 L 579 502 Q 576 502 576 499 L 576 499 Q 576 496 579 496 Z"/></g><g transform="translate(-374,-134) scale(1,1)"><path fill="none" stroke="#000000" d="M 504 440 L 504 464 L 584 464 L 584 496" stroke-miterlimit="10"/></g><g transform="translate(-374,-134) scale(1,1)"><path fill="none" stroke="#000000" d="M 579.790482243984 485.83732514237585 L 584 496 L 588.209517756016 485.83732514237585" stroke-miterlimit="10"/></g><g transform="translate(-374,-134) scale(1,1)"><path fill="none" stroke="#000000" d="M 610 501 L 610 552" stroke-miterlimit="10"/></g><g transform="translate(-374,-134) scale(1,1)"><path fill="none" stroke="#000000" d="M 605.790482243984 541.8373251423759 L 610 552 L 614.209517756016 541.8373251423759" stroke-miterlimit="10"/></g><g transform="translate(-374,-134) scale(1,1)"><path fill="none" stroke="#000000" d="M 712 440 L 712 464 L 640 464 L 640 496" stroke-miterlimit="10"/></g><g transform="translate(-374,-134) scale(1,1)"><path fill="none" stroke="#000000" d="M 635.790482243984 485.83732514237585 L 640 496 L 644.209517756016 485.83732514237585" stroke-miterlimit="10"/></g><g transform="translate(-374,-134) scale(1,1)"><path fill="none" stroke="#000000" d="M 610 501 L 610 552" stroke-miterlimit="10"/></g><g transform="translate(-374,-134) scale(1,1)"><path fill="none" stroke="#000000" d="M 605.790482243984 541.8373251423759 L 610 552 L 614.209517756016 541.8373251423759" stroke-miterlimit="10"/></g><g transform="translate(-374,-134) scale(1,1)"><path fill="#C0C0C0" stroke="none" d="M 1039 611.5 L 1063.5 591 L 1087 611.5 L 1063.5 631 L 1039 611.5" opacity="0.2"/></g><g transform="translate(-374,-134) scale(1,1)"><path fill="#ffffff" stroke="none" d="M 1032 604 L 1056 584 L 1080 604 L 1056 624 L 1032 604"/></g><g transform="translate(-374,-134) scale(1,1)"><path fill="none" stroke="#000000" d="M 1032 604 L 1056 584 L 1080 604 L 1056 624 L 1032 604 L 1032 604" stroke-miterlimit="10"/></g><g transform="translate(-374,-134) scale(1,1)"><path fill="none" stroke="#000000" d="M 696 560 L 1056 560 L 1056 584" stroke-miterlimit="10"/></g><g transform="translate(-374,-134) scale(1,1)"><path fill="none" stroke="#000000" d="M 1051.7904822439841 573.8373251423759 L 1056 584 L 1060.2095177560159 573.8373251423759" stroke-miterlimit="10"/></g><g transform="translate(-374,-134) scale(1,1)"><path fill="#C0C0C0" stroke="none" d="M 873 679 L 1029 679 Q 1039 679 1039 689 L 1039 709 Q 1039 719 1029 719 L 873 719 Q 863 719 863 709 L 863 689 Q 863 679 873 679 Z" opacity="0.2"/></g><g transform="translate(-374,-134) scale(1,1)"><path fill="#ffffff" stroke="none" d="M 866 672 L 1022 672 Q 1032 672 1032 682 L 1032 702 Q 1032 712 1022 712 L 866 712 Q 856 712 856 702 L 856 682 Q 856 672 866 672 Z"/></g><g transform="translate(-374,-134) scale(1,1)"><path fill="none" stroke="#000000" d="M 866 672 L 1022 672 Q 1032 672 1032 682 L 1032 702 Q 1032 712 1022 712 L 866 712 Q 856 712 856 702 L 856 682 Q 856 672 866 672 Z" stroke-miterlimit="10"/></g><g transform="translate(-374,-134) scale(1,1)"><g><path fill="none" stroke="none"/><text fill="#000000" stroke="none" font-family="Arial" font-size="13px" font-style="normal" font-weight="bold" text-decoration="none" x="874.020263671875" y="691.5">Afficher une page erreur</text></g></g><g transform="translate(-374,-134) scale(1,1)"><path fill="#C0C0C0" stroke="none" d="M 1065 679 L 1277 679 Q 1287 679 1287 689 L 1287 709 Q 1287 719 1277 719 L 1065 719 Q 1055 719 1055 709 L 1055 689 Q 1055 679 1065 679 Z" opacity="0.2"/></g><g transform="translate(-374,-134) scale(1,1)"><path fill="#ffffff" stroke="none" d="M 1058 672 L 1270 672 Q 1280 672 1280 682 L 1280 702 Q 1280 712 1270 712 L 1058 712 Q 1048 712 1048 702 L 1048 682 Q 1048 672 1058 672 Z"/></g><g transform="translate(-374,-134) scale(1,1)"><path fill="none" stroke="#000000" d="M 1058 672 L 1270 672 Q 1280 672 1280 682 L 1280 702 Q 1280 712 1270 712 L 1058 712 Q 1048 712 1048 702 L 1048 682 Q 1048 672 1058 672 Z" stroke-miterlimit="10"/></g><g transform="translate(-374,-134) scale(1,1)"><g><path fill="none" stroke="none"/><text fill="#000000" stroke="none" font-family="Arial" font-size="13px" font-style="normal" font-weight="bold" text-decoration="none" x="1072.190673828125" y="691.5">Afficher le profile de l'invocateur</text></g></g><g transform="translate(-374,-134) scale(1,1)"><path fill="none" stroke="#000000" d="M 1032 600 L 935 600 L 935 672" stroke-miterlimit="10"/></g><g transform="translate(-374,-134) scale(1,1)"><path fill="none" stroke="#000000" d="M 930.790482243984 661.8373251423759 L 935 672 L 939.209517756016 661.8373251423759" stroke-miterlimit="10"/></g><g transform="translate(-374,-134) scale(1,1)"><g><path fill="none" stroke="none"/><text fill="#000000" stroke="none" font-family="Arial" font-size="13px" font-style="normal" font-weight="normal" text-decoration="none" x="855.5" y="587.5">[Invocateur introuvable]</text></g></g><g transform="translate(-374,-134) scale(1,1)"><path fill="none" stroke="#000000" d="M 1080 600 L 1176 600 L 1176 672" stroke-miterlimit="10"/></g><g transform="translate(-374,-134) scale(1,1)"><path fill="none" stroke="#000000" d="M 1171.7904822439841 661.8373251423759 L 1176 672 L 1180.2095177560159 661.8373251423759" stroke-miterlimit="10"/></g><g transform="translate(-374,-134) scale(1,1)"><g><path fill="none" stroke="none"/><text fill="#000000" stroke="none" font-family="Arial" font-size="13px" font-style="normal" font-weight="normal" text-decoration="none" x="1102.5" y="587.5">[Invocateur existant]</text></g></g><g transform="translate(-374,-134) scale(1,1)"><path fill="#C0C0C0" stroke="none" d="M 927 787.5 C 927 780.59644 932.59644 775 939.5 775 C 946.40356 775 952 780.59644 952 787.5 C 952 794.40356 946.40356 800 939.5 800 C 932.59644 800 927 794.40356 927 787.5 Z" opacity="0.2"/></g><g transform="translate(-374,-134) scale(1,1)"><path fill="none" stroke="#000000" d="M 920 780.5 C 920 773.59644 925.59644 768 932.5 768 C 939.40356 768 945 773.59644 945 780.5 C 945 787.40356 939.40356 793 932.5 793 C 925.59644 793 920 787.40356 920 780.5 Z" stroke-miterlimit="10"/></g><g transform="translate(-374,-134) scale(1,1)"><path fill="#000000" stroke="none" d="M 925 780.5 C 925 776.357864 928.357864 773 932.5 773 C 936.642136 773 940 776.357864 940 780.5 C 940 784.642136 936.642136 788 932.5 788 C 928.357864 788 925 784.642136 925 780.5 Z"/></g><g transform="translate(-374,-134) scale(1,1)"><path fill="none" stroke="#000000" d="M 934 712 L 934 768" stroke-miterlimit="10"/></g><g transform="translate(-374,-134) scale(1,1)"><path fill="none" stroke="#000000" d="M 929.790482243984 757.8373251423759 L 934 768 L 938.209517756016 757.8373251423759" stroke-miterlimit="10"/></g><g transform="translate(-374,-134) scale(1,1)"><path fill="#C0C0C0" stroke="none" d="M 1146 767 L 1209 767 Q 1212 767 1212 770 L 1212 769 Q 1212 772 1209 772 L 1146 772 Q 1143 772 1143 769 L 1143 770 Q 1143 767 1146 767 Z" opacity="0.2"/></g><g transform="translate(-374,-134) scale(1,1)"><path fill="#000000" stroke="none" d="M 1139 760 L 1202 760 Q 1205 760 1205 763 L 1205 763 Q 1205 766 1202 766 L 1139 766 Q 1136 766 1136 763 L 1136 763 Q 1136 760 1139 760 Z"/></g><g transform="translate(-374,-134) scale(1,1)"><path fill="#C0C0C0" stroke="none" d="M 1239 851.5 C 1239 844.59644 1244.59644 839 1251.5 839 C 1258.40356 839 1264 844.59644 1264 851.5 C 1264 858.40356 1258.40356 864 1251.5 864 C 1244.59644 864 1239 858.40356 1239 851.5 Z" opacity="0.2"/></g><g transform="translate(-374,-134) scale(1,1)"><path fill="none" stroke="#000000" d="M 1232 844.5 C 1232 837.59644 1237.59644 832 1244.5 832 C 1251.40356 832 1257 837.59644 1257 844.5 C 1257 851.40356 1251.40356 857 1244.5 857 C 1237.59644 857 1232 851.40356 1232 844.5 Z" stroke-miterlimit="10"/></g><g transform="translate(-374,-134) scale(1,1)"><path fill="#000000" stroke="none" d="M 1237 844.5 C 1237 840.357864 1240.357864 837 1244.5 837 C 1248.642136 837 1252 840.357864 1252 844.5 C 1252 848.642136 1248.642136 852 1244.5 852 C 1240.357864 852 1237 848.642136 1237 844.5 Z"/></g><g transform="translate(-374,-134) scale(1,1)"><path fill="none" stroke="#000000" d="M 1169 712 L 1169 760" stroke-miterlimit="10"/></g><g transform="translate(-374,-134) scale(1,1)"><path fill="none" stroke="#000000" d="M 1164.7904822439841 749.8373251423759 L 1169 760 L 1173.2095177560159 749.8373251423759" stroke-miterlimit="10"/></g><g transform="translate(-374,-134) scale(1,1)"><path fill="none" stroke="#000000" d="M 1192 765 L 1192 808 L 1240 808 L 1240 832" stroke-miterlimit="10"/></g><g transform="translate(-374,-134) scale(1,1)"><path fill="none" stroke="#000000" d="M 1235.7904822439841 821.8373251423759 L 1240 832 L 1244.2095177560159 821.8373251423759" stroke-miterlimit="10"/></g><g transform="translate(-374,-134) scale(1,1)"><path fill="none" stroke="#000000" d="M 990 984 L 990 1024" stroke-miterlimit="10"/></g><g transform="translate(-374,-134) scale(1,1)"><path fill="none" stroke="#000000" d="M 985.790482243984 1013.8373251423759 L 990 1024 L 994.209517756016 1013.8373251423759" stroke-miterlimit="10"/></g><g transform="translate(-374,-134) scale(1,1)"><path fill="#C0C0C0" stroke="none" d="M 983 1043.5 C 983 1036.59644 988.59644 1031 995.5 1031 C 1002.40356 1031 1008 1036.59644 1008 1043.5 C 1008 1050.40356 1002.40356 1056 995.5 1056 C 988.59644 1056 983 1050.40356 983 1043.5 Z" opacity="0.2"/></g><g transform="translate(-374,-134) scale(1,1)"><path fill="none" stroke="#000000" d="M 976 1036.5 C 976 1029.59644 981.59644 1024 988.5 1024 C 995.40356 1024 1001 1029.59644 1001 1036.5 C 1001 1043.40356 995.40356 1049 988.5 1049 C 981.59644 1049 976 1043.40356 976 1036.5 Z" stroke-miterlimit="10"/></g><g transform="translate(-374,-134) scale(1,1)"><path fill="#000000" stroke="none" d="M 981 1036.5 C 981 1032.357864 984.357864 1029 988.5 1029 C 992.642136 1029 996 1032.357864 996 1036.5 C 996 1040.642136 992.642136 1044 988.5 1044 C 984.357864 1044 981 1040.642136 981 1036.5 Z"/></g><g transform="translate(-374,-134) scale(1,1)"><path fill="#C0C0C0" stroke="none" d="M 913 951 L 1077 951 Q 1087 951 1087 961 L 1087 981 Q 1087 991 1077 991 L 913 991 Q 903 991 903 981 L 903 961 Q 903 951 913 951 Z" opacity="0.2"/></g><g transform="translate(-374,-134) scale(1,1)"><path fill="#ffffff" stroke="none" d="M 906 944 L 1070 944 Q 1080 944 1080 954 L 1080 974 Q 1080 984 1070 984 L 906 984 Q 896 984 896 974 L 896 954 Q 896 944 906 944 Z"/></g><g transform="translate(-374,-134) scale(1,1)"><path fill="none" stroke="#000000" d="M 906 944 L 1070 944 Q 1080 944 1080 954 L 1080 974 Q 1080 984 1070 984 L 906 984 Q 896 984 896 974 L 896 954 Q 896 944 906 944 Z" stroke-miterlimit="10"/></g><g transform="translate(-374,-134) scale(1,1)"><g><path fill="none" stroke="none"/><text fill="#000000" stroke="none" font-family="Arial" font-size="13px" font-style="normal" font-weight="bold" text-decoration="none" x="919.0009765625" y="963.5">Télécharger fichier CSV</text></g></g><g transform="translate(-374,-134) scale(1,1)"><path fill="#C0C0C0" stroke="none" d="M 489 839 L 725 839 Q 735 839 735 849 L 735 869 Q 735 879 725 879 L 489 879 Q 479 879 479 869 L 479 849 Q 479 839 489 839 Z" opacity="0.2"/></g><g transform="translate(-374,-134) scale(1,1)"><path fill="#ffffff" stroke="none" d="M 482 832 L 718 832 Q 728 832 728 842 L 728 862 Q 728 872 718 872 L 482 872 Q 472 872 472 862 L 472 842 Q 472 832 482 832 Z"/></g><g transform="translate(-374,-134) scale(1,1)"><path fill="none" stroke="#000000" d="M 482 832 L 718 832 Q 728 832 728 842 L 728 862 Q 728 872 718 872 L 482 872 Q 472 872 472 862 L 472 842 Q 472 832 482 832 Z" stroke-miterlimit="10"/></g><g transform="translate(-374,-134) scale(1,1)"><g><path fill="none" stroke="none"/><text fill="#000000" stroke="none" font-family="Arial" font-size="13px" font-style="normal" font-weight="bold" text-decoration="none" x="495.939697265625" y="851.5">Cliquer bouton telechargement CSV</text></g></g><g transform="translate(-374,-134) scale(1,1)"><path fill="none" stroke="#000000" d="M 1152 765 L 1152 840 L 728 840" stroke-miterlimit="10"/></g><g transform="translate(-374,-134) scale(1,1)"><path fill="none" stroke="#000000" d="M 738.1626748576241 835.790482243984 L 728 840 L 738.1626748576241 844.209517756016" stroke-miterlimit="10"/></g><g transform="translate(-374,-134) scale(1,1)"><path fill="none" stroke="#000000" d="M 728 864 L 992 864 L 992 944" stroke-miterlimit="10"/></g><g transform="translate(-374,-134) scale(1,1)"><path fill="none" stroke="#000000" d="M 987.790482243984 933.8373251423759 L 992 944 L 996.209517756016 933.8373251423759" stroke-miterlimit="10"/></g></g></svg>