<svg version="1.1" xmlns="http://www.w3.org/2000/svg" xmlns:xlink="http://www.w3.org/1999/xlink" width="476.04833984375" height="637"><defs/><g><text fill="#eeeeee" stroke="none" font-family="Arial" font-size="24px" font-style="normal" font-weight="normal" text-decoration="none" x="0" y="0">UNREGISTERED</text><text fill="#eeeeee" stroke="none" font-family="Arial" font-size="24px" font-style="normal" font-weight="normal" text-decoration="none" x="0" y="30">UNREGISTERED</text><text fill="#eeeeee" stroke="none" font-family="Arial" font-size="24px" font-style="normal" font-weight="normal" text-decoration="none" x="0" y="60">UNREGISTERED</text><text fill="#eeeeee" stroke="none" font-family="Arial" font-size="24px" font-style="normal" font-weight="normal" text-decoration="none" x="0" y="90">UNREGISTERED</text><text fill="#eeeeee" stroke="none" font-family="Arial" font-size="24px" font-style="normal" font-weight="normal" text-decoration="none" x="0" y="120">UNREGISTERED</text><text fill="#eeeeee" stroke="none" font-family="Arial" font-size="24px" font-style="normal" font-weight="normal" text-decoration="none" x="0" y="150">UNREGISTERED</text><text fill="#eeeeee" stroke="none" font-family="Arial" font-size="24px" font-style="normal" font-weight="normal" text-decoration="none" x="0" y="180">UNREGISTERED</text><text fill="#eeeeee" stroke="none" font-family="Arial" font-size="24px" font-style="normal" font-weight="normal" text-decoration="none" x="0" y="210">UNREGISTERED</text><text fill="#eeeeee" stroke="none" font-family="Arial" font-size="24px" font-style="normal" font-weight="normal" text-decoration="none" x="0" y="240">UNREGISTERED</text><text fill="#eeeeee" stroke="none" font-family="Arial" font-size="24px" font-style="normal" font-weight="normal" text-decoration="none" x="0" y="270">UNREGISTERED</text><text fill="#eeeeee" stroke="none" font-family="Arial" font-size="24px" font-style="normal" font-weight="normal" text-decoration="none" x="0" y="300">UNREGISTERED</text><text fill="#eeeeee" stroke="none" font-family="Arial" font-size="24px" font-style="normal" font-weight="normal" text-decoration="none" x="0" y="330">UNREGISTERED</text><text fill="#eeeeee" stroke="none" font-family="Arial" font-size="24px" font-style="normal" font-weight="normal" text-decoration="none" x="0" y="360">UNREGISTERED</text><text fill="#eeeeee" stroke="none" font-family="Arial" font-size="24px" font-style="normal" font-weight="normal" text-decoration="none" x="0" y="390">UNREGISTERED</text><text fill="#eeeeee" stroke="none" font-family="Arial" font-size="24px" font-style="normal" font-weight="normal" text-decoration="none" x="0" y="420">UNREGISTERED</text><text fill="#eeeeee" stroke="none" font-family="Arial" font-size="24px" font-style="normal" font-weight="normal" text-decoration="none" x="0" y="450">UNREGISTERED</text><text fill="#eeeeee" stroke="none" font-family="Arial" font-size="24px" font-style="normal" font-weight="normal" text-decoration="none" x="0" y="480">UNREGISTERED</text><text fill="#eeeeee" stroke="none" font-family="Arial" font-size="24px" font-style="normal" font-weight="normal" text-decoration="none" x="0" y="510">UNREGISTERED</text><text fill="#eeeeee" stroke="none" font-family="Arial" font-size="24px" font-style="normal" font-weight="normal" text-decoration="none" x="0" y="540">UNREGISTERED</text><text fill="#eeeeee" stroke="none" font-family="Arial" font-size="24px" font-style="normal" font-weight="normal" text-decoration="none" x="0" y="570">UNREGISTERED</text><text fill="#eeeeee" stroke="none" font-family="Arial" font-size="24px" font-style="normal" font-weight="normal" text-decoration="none" x="0" y="600">UNREGISTERED</text><text fill="#eeeeee" stroke="none" font-family="Arial" font-size="24px" font-style="normal" font-weight="normal" text-decoration="none" x="0" y="630">UNREGISTERED</text><text fill="#eeeeee" stroke="none" font-family="Arial" font-size="24px" font-style="normal" font-weight="normal" text-decoration="none" x="200" y="0">UNREGISTERED</text><text fill="#eeeeee" stroke="none" font-family="Arial" font-size="24px" font-style="normal" font-weight="normal" text-decoration="none" x="200" y="30">UNREGISTERED</text><text fill="#eeeeee" stroke="none" font-family="Arial" font-size="24px" font-style="normal" font-weight="normal" text-decoration="none" x="200" y="60">UNREGISTERED</text><text fill="#eeeeee" stroke="none" font-family="Arial" font-size="24px" font-style="normal" font-weight="normal" text-decoration="none" x="200" y="90">UNREGISTERED</text><text fill="#eeeeee" stroke="none" font-family="Arial" font-size="24px" font-style="normal" font-weight="normal" text-decoration="none" x="200" y="120">UNREGISTERED</text><text fill="#eeeeee" stroke="none" font-family="Arial" font-size="24px" font-style="normal" font-weight="normal" text-decoration="none" x="200" y="150">UNREGISTERED</text><text fill="#eeeeee" stroke="none" font-family="Arial" font-size="24px" font-style="normal" font-weight="normal" text-decoration="none" x="200" y="180">UNREGISTERED</text><text fill="#eeeeee" stroke="none" font-family="Arial" font-size="24px" font-style="normal" font-weight="normal" text-decoration="none" x="200" y="210">UNREGISTERED</text><text fill="#eeeeee" stroke="none" font-family="Arial" font-size="24px" font-style="normal" font-weight="normal" text-decoration="none" x="200" y="240">UNREGISTERED</text><text fill="#eeeeee" stroke="none" font-family="Arial" font-size="24px" font-style="normal" font-weight="normal" text-decoration="none" x="200" y="270">UNREGISTERED</text><text fill="#eeeeee" stroke="none" font-family="Arial" font-size="24px" font-style="normal" font-weight="normal" text-decoration="none" x="200" y="300">UNREGISTERED</text><text fill="#eeeeee" stroke="none" font-family="Arial" font-size="24px" font-style="normal" font-weight="normal" text-decoration="none" x="200" y="330">UNREGISTERED</text><text fill="#eeeeee" stroke="none" font-family="Arial" font-size="24px" font-style="normal" font-weight="normal" text-decoration="none" x="200" y="360">UNREGISTERED</text><text fill="#eeeeee" stroke="none" font-family="Arial" font-size="24px" font-style="normal" font-weight="normal" text-decoration="none" x="200" y="390">UNREGISTERED</text><text fill="#eeeeee" stroke="none" font-family="Arial" font-size="24px" font-style="normal" font-weight="normal" text-decoration="none" x="200" y="420">UNREGISTERED</text><text fill="#eeeeee" stroke="none" font-family="Arial" font-size="24px" font-style="normal" font-weight="normal" text-decoration="none" x="200" y="450">UNREGISTERED</text><text fill="#eeeeee" stroke="none" font-family="Arial" font-size="24px" font-style="normal" font-weight="normal" text-decoration="none" x="200" y="480">UNREGISTERED</text><text fill="#eeeeee" stroke="none" font-family="Arial" font-size="24px" font-style="normal" font-weight="normal" text-decoration="none" x="200" y="510">UNREGISTERED</text><text fill="#eeeeee" stroke="none" font-family="Arial" font-size="24px" font-style="normal" font-weight="normal" text-decoration="none" x="200" y="540">UNREGISTERED</text><text fill="#eeeeee" stroke="none" font-family="Arial" font-size="24px" font-style="normal" font-weight="normal" text-decoration="none" x="200" y="570">UNREGISTERED</text><text fill="#eeeeee" stroke="none" font-family="Arial" font-size="24px" font-style="normal" font-weight="normal" text-decoration="none" x="200" y="600">UNREGISTERED</text><text fill="#eeeeee" stroke="none" font-family="Arial" font-size="24px" font-style="normal" font-weight="normal" text-decoration="none" x="200" y="630">UNREGISTERED</text><text fill="#eeeeee" stroke="none" font-family="Arial" font-size="24px" font-style="normal" font-weight="normal" text-decoration="none" x="400" y="0">UNREGISTERED</text><text fill="#eeeeee" stroke="none" font-family="Arial" font-size="24px" font-style="normal" font-weight="normal" text-decoration="none" x="400" y="30">UNREGISTERED</text><text fill="#eeeeee" stroke="none" font-family="Arial" font-size="24px" font-style="normal" font-weight="normal" text-decoration="none" x="400" y="60">UNREGISTERED</text><text fill="#eeeeee" stroke="none" font-family="Arial" font-size="24px" font-style="normal" font-weight="normal" text-decoration="none" x="400" y="90">UNREGISTERED</text><text fill="#eeeeee" stroke="none" font-family="Arial" font-size="24px" font-style="normal" font-weight="normal" text-decoration="none" x="400" y="120">UNREGISTERED</text><text fill="#eeeeee" stroke="none" font-family="Arial" font-size="24px" font-style="normal" font-weight="normal" text-decoration="none" x="400" y="150">UNREGISTERED</text><text fill="#eeeeee" stroke="none" font-family="Arial" font-size="24px" font-style="normal" font-weight="normal" text-decoration="none" x="400" y="180">UNREGISTERED</text><text fill="#eeeeee" stroke="none" font-family="Arial" font-size="24px" font-style="normal" font-weight="normal" text-decoration="none" x="400" y="210">UNREGISTERED</text><text fill="#eeeeee" stroke="none" font-family="Arial" font-size="24px" font-style="normal" font-weight="normal" text-decoration="none" x="400" y="240">UNREGISTERED</text><text fill="#eeeeee" stroke="none" font-family="Arial" font-size="24px" font-style="normal" font-weight="normal" text-decoration="none" x="400" y="270">UNREGISTERED</text><text fill="#eeeeee" stroke="none" font-family="Arial" font-size="24px" font-style="normal" font-weight="normal" text-decoration="none" x="400" y="300">UNREGISTERED</text><text fill="#eeeeee" stroke="none" font-family="Arial" font-size="24px" font-style="normal" font-weight="normal" text-decoration="none" x="400" y="330">UNREGISTERED</text><text fill="#eeeeee" stroke="none" font-family="Arial" font-size="24px" font-style="normal" font-weight="normal" text-decoration="none" x="400" y="360">UNREGISTERED</text><text fill="#eeeeee" stroke="none" font-family="Arial" font-size="24px" font-style="normal" font-weight="normal" text-decoration="none" x="400" y="390">UNREGISTERED</text><text fill="#eeeeee" stroke="none" font-family="Arial" font-size="24px" font-style="normal" font-weight="normal" text-decoration="none" x="400" y="420">UNREGISTERED</text><text fill="#eeeeee" stroke="none" font-family="Arial" font-size="24px" font-style="normal" font-weight="normal" text-decoration="none" x="400" y="450">UNREGISTERED</text><text fill="#eeeeee" stroke="none" font-family="Arial" font-size="24px" font-style="normal" font-weight="normal" text-decoration="none" x="400" y="480">UNREGISTERED</text><text fill="#eeeeee" stroke="none" font-family="Arial" font-size="24px" font-style="normal" font-weight="normal" text-decoration="none" x="400" y="510">UNREGISTERED</text><text fill="#eeeeee" stroke="none" font-family="Arial" font-size="24px" font-style="normal" font-weight="normal" text-decoration="none" x="400" y="540">UNREGISTERED</text><text fill="#eeeeee" stroke="none" font-family="Arial" font-size="24px" font-style="normal" font-weight="normal" text-decoration="none" x="400" y="570">UNREGISTERED</text><text fill="#eeeeee" stroke="none" font-family="Arial" font-size="24px" font-style="normal" font-weight="normal" text-decoration="none" x="400" y="600">UNREGISTERED</text><text fill="#eeeeee" stroke="none" font-family="Arial" font-size="24px" font-style="normal" font-weight="normal" text-decoration="none" x="400" y="630">UNREGISTERED</text><g transform="translate(-870,-150) scale(1,1)"><rect fill="#C0C0C0" stroke="none" x="1007" y="167" width="304" height="216" opacity="0.2"/></g><g transform="translate(-870,-150) scale(1,1)"><rect fill="#ffffff" stroke="none" x="1000" y="160" width="304" height="216"/></g><g transform="translate(-870,-150) scale(1,1)"><path fill="none" stroke="#000000" d="M 1000 160 L 1304 160 L 1304 376 L 1000 376 L 1000 160 Z Z" stroke-miterlimit="10"/></g><g transform="translate(-870,-150) scale(1,1)"><path fill="none" stroke="#000000" d="M 1000 185 L 1304 185" stroke-miterlimit="10"/></g><g transform="translate(-870,-150) scale(1,1)"><path fill="none" stroke="#000000" d="M 1000 240 L 1304 240" stroke-miterlimit="10"/></g><g transform="translate(-870,-150) scale(1,1)"><g><path fill="none" stroke="none"/><text fill="#000000" stroke="none" font-family="Arial" font-size="13px" font-style="normal" font-weight="bold" text-decoration="none" x="1124.898681640625" y="179.5">metadata</text></g></g><g transform="translate(-870,-150) scale(1,1)"><g><path fill="none" stroke="none"/><text fill="#000000" stroke="none" font-family="Arial" font-size="13px" font-style="normal" font-weight="normal" text-decoration="none" x="1005" y="204.5">+dataVersion</text></g></g><g transform="translate(-870,-150) scale(1,1)"><g><path fill="none" stroke="none"/><text fill="#000000" stroke="none" font-family="Arial" font-size="13px" font-style="normal" font-weight="normal" text-decoration="none" x="1005" y="219.5">+matchId</text></g></g><g transform="translate(-870,-150) scale(1,1)"><g><path fill="none" stroke="none"/><text fill="#000000" stroke="none" font-family="Arial" font-size="13px" font-style="normal" font-weight="normal" text-decoration="none" x="1005" y="234.5">+...</text></g></g><g transform="translate(-870,-150) scale(1,1)"><rect fill="#C0C0C0" stroke="none" x="887" y="431" width="231" height="143" opacity="0.2"/></g><g transform="translate(-870,-150) scale(1,1)"><rect fill="#ffffff" stroke="none" x="880" y="424" width="231" height="143"/></g><g transform="translate(-870,-150) scale(1,1)"><path fill="none" stroke="#000000" d="M 880 424 L 1111 424 L 1111 567 L 880 567 L 880 424 Z Z" stroke-miterlimit="10"/></g><g transform="translate(-870,-150) scale(1,1)"><path fill="none" stroke="#000000" d="M 880 449 L 1111 449" stroke-miterlimit="10"/></g><g transform="translate(-870,-150) scale(1,1)"><path fill="none" stroke="#000000" d="M 880 532 L 1111 532" stroke-miterlimit="10"/></g><g transform="translate(-870,-150) scale(1,1)"><g><path fill="none" stroke="none"/><text fill="#000000" stroke="none" font-family="Arial" font-size="13px" font-style="normal" font-weight="bold" text-decoration="none" x="962.260498046875" y="443.5">participants</text></g></g><g transform="translate(-870,-150) scale(1,1)"><g><path fill="none" stroke="none"/><text fill="#000000" stroke="none" font-family="Arial" font-size="13px" font-style="normal" font-weight="normal" text-decoration="none" x="885" y="466.5">+0</text></g></g><g transform="translate(-870,-150) scale(1,1)"><g><path fill="none" stroke="none"/><text fill="#000000" stroke="none" font-family="Arial" font-size="13px" font-style="normal" font-weight="normal" text-decoration="none" x="885" y="481.5">+1</text></g></g><g transform="translate(-870,-150) scale(1,1)"><g><path fill="none" stroke="none"/><text fill="#000000" stroke="none" font-family="Arial" font-size="13px" font-style="normal" font-weight="normal" text-decoration="none" x="885" y="496.5">+2</text></g></g><g transform="translate(-870,-150) scale(1,1)"><g><path fill="none" stroke="none"/><text fill="#000000" stroke="none" font-family="Arial" font-size="13px" font-style="normal" font-weight="normal" text-decoration="none" x="885" y="511.5">+3</text></g></g><g transform="translate(-870,-150) scale(1,1)"><g><path fill="none" stroke="none"/><text fill="#000000" stroke="none" font-family="Arial" font-size="13px" font-style="normal" font-weight="normal" text-decoration="none" x="885" y="526.5">+...</text></g></g><g transform="translate(-870,-150) scale(1,1)"><rect fill="#C0C0C0" stroke="none" x="1207" y="431" width="136.04833984375" height="132" opacity="0.2"/></g><g transform="translate(-870,-150) scale(1,1)"><rect fill="#ffffff" stroke="none" x="1200" y="424" width="136.04833984375" height="132"/></g><g transform="translate(-870,-150) scale(1,1)"><path fill="none" stroke="#000000" d="M 1200 424 L 1336.04833984375 424 L 1336.04833984375 556 L 1200 556 L 1200 424 Z Z" stroke-miterlimit="10"/></g><g transform="translate(-870,-150) scale(1,1)"><path fill="none" stroke="#000000" d="M 1200 449 L 1336.04833984375 449" stroke-miterlimit="10"/></g><g transform="translate(-870,-150) scale(1,1)"><path fill="none" stroke="#000000" d="M 1200 547 L 1336.04833984375 547" stroke-miterlimit="10"/></g><g transform="translate(-870,-150) scale(1,1)"><g><path fill="none" stroke="none"/><text fill="#000000" stroke="none" font-family="Arial" font-size="13px" font-style="normal" font-weight="bold" text-decoration="none" x="1257.544189453125" y="443.5">info</text></g></g><g transform="translate(-870,-150) scale(1,1)"><g><path fill="none" stroke="none"/><text fill="#000000" stroke="none" font-family="Arial" font-size="13px" font-style="normal" font-weight="normal" text-decoration="none" x="1205" y="466.5">+gameCreation</text></g></g><g transform="translate(-870,-150) scale(1,1)"><g><path fill="none" stroke="none"/><text fill="#000000" stroke="none" font-family="Arial" font-size="13px" font-style="normal" font-weight="normal" text-decoration="none" x="1205" y="481.5">+gameDuration</text></g></g><g transform="translate(-870,-150) scale(1,1)"><g><path fill="none" stroke="none"/><text fill="#000000" stroke="none" font-family="Arial" font-size="13px" font-style="normal" font-weight="normal" text-decoration="none" x="1205" y="496.5">+gameEndTimestamp</text></g></g><g transform="translate(-870,-150) scale(1,1)"><g><path fill="none" stroke="none"/><text fill="#000000" stroke="none" font-family="Arial" font-size="13px" font-style="normal" font-weight="normal" text-decoration="none" x="1205" y="511.5">+gameId</text></g></g><g transform="translate(-870,-150) scale(1,1)"><g><path fill="none" stroke="none"/><text fill="#000000" stroke="none" font-family="Arial" font-size="13px" font-style="normal" font-weight="normal" text-decoration="none" x="1205" y="526.5">+gameMode</text></g></g><g transform="translate(-870,-150) scale(1,1)"><g><path fill="none" stroke="none"/><text fill="#000000" stroke="none" font-family="Arial" font-size="13px" font-style="normal" font-weight="normal" text-decoration="none" x="1205" y="541.5">+...</text></g></g><g transform="translate(-870,-150) scale(1,1)"><rect fill="#C0C0C0" stroke="none" x="1119" y="631" width="82.68359375" height="57" opacity="0.2"/></g><g transform="translate(-870,-150) scale(1,1)"><rect fill="#ffffff" stroke="none" x="1112" y="624" width="82.68359375" height="57"/></g><g transform="translate(-870,-150) scale(1,1)"><path fill="none" stroke="#000000" d="M 1112 624 L 1194.68359375 624 L 1194.68359375 681 L 1112 681 L 1112 624 Z Z" stroke-miterlimit="10"/></g><g transform="translate(-870,-150) scale(1,1)"><path fill="none" stroke="#000000" d="M 1112 649 L 1194.68359375 649" stroke-miterlimit="10"/></g><g transform="translate(-870,-150) scale(1,1)"><path fill="none" stroke="#000000" d="M 1112 672 L 1194.68359375 672" stroke-miterlimit="10"/></g><g transform="translate(-870,-150) scale(1,1)"><g><path fill="none" stroke="none"/><text fill="#000000" stroke="none" font-family="Arial" font-size="13px" font-style="normal" font-weight="bold" text-decoration="none" x="1120.102294921875" y="643.5">participants</text></g></g><g transform="translate(-870,-150) scale(1,1)"><g><path fill="none" stroke="none"/><text fill="#000000" stroke="none" font-family="Arial" font-size="13px" font-style="normal" font-weight="normal" text-decoration="none" x="1117" y="666.5">+...</text></g></g><g transform="translate(-870,-150) scale(1,1)"><rect fill="#C0C0C0" stroke="none" x="983" y="727" width="72.2353515625" height="57" opacity="0.2"/></g><g transform="translate(-870,-150) scale(1,1)"><rect fill="#ffffff" stroke="none" x="976" y="720" width="72.2353515625" height="57"/></g><g transform="translate(-870,-150) scale(1,1)"><path fill="none" stroke="#000000" d="M 976 720 L 1048.2353515625 720 L 1048.2353515625 777 L 976 777 L 976 720 Z Z" stroke-miterlimit="10"/></g><g transform="translate(-870,-150) scale(1,1)"><path fill="none" stroke="#000000" d="M 976 745 L 1048.2353515625 745" stroke-miterlimit="10"/></g><g transform="translate(-870,-150) scale(1,1)"><path fill="none" stroke="#000000" d="M 976 768 L 1048.2353515625 768" stroke-miterlimit="10"/></g><g transform="translate(-870,-150) scale(1,1)"><g><path fill="none" stroke="none"/><text fill="#000000" stroke="none" font-family="Arial" font-size="13px" font-style="normal" font-weight="bold" text-decoration="none" x="1008.502685546875" y="739.5">0</text></g></g><g transform="translate(-870,-150) scale(1,1)"><g><path fill="none" stroke="none"/><text fill="#000000" stroke="none" font-family="Arial" font-size="13px" font-style="normal" font-weight="normal" text-decoration="none" x="981" y="762.5">+...</text></g></g><g transform="translate(-870,-150) scale(1,1)"><rect fill="#C0C0C0" stroke="none" x="1119" y="727" width="72.2353515625" height="57" opacity="0.2"/></g><g transform="translate(-870,-150) scale(1,1)"><rect fill="#ffffff" stroke="none" x="1112" y="720" width="72.2353515625" height="57"/></g><g transform="translate(-870,-150) scale(1,1)"><path fill="none" stroke="#000000" d="M 1112 720 L 1184.2353515625 720 L 1184.2353515625 777 L 1112 777 L 1112 720 Z Z" stroke-miterlimit="10"/></g><g transform="translate(-870,-150) scale(1,1)"><path fill="none" stroke="#000000" d="M 1112 745 L 1184.2353515625 745" stroke-miterlimit="10"/></g><g transform="translate(-870,-150) scale(1,1)"><path fill="none" stroke="#000000" d="M 1112 768 L 1184.2353515625 768" stroke-miterlimit="10"/></g><g transform="translate(-870,-150) scale(1,1)"><g><path fill="none" stroke="none"/><text fill="#000000" stroke="none" font-family="Arial" font-size="13px" font-style="normal" font-weight="bold" text-decoration="none" x="1144.502685546875" y="739.5">1</text></g></g><g transform="translate(-870,-150) scale(1,1)"><g><path fill="none" stroke="none"/><text fill="#000000" stroke="none" font-family="Arial" font-size="13px" font-style="normal" font-weight="normal" text-decoration="none" x="1117" y="762.5">+...</text></g></g><g transform="translate(-870,-150) scale(1,1)"><rect fill="#C0C0C0" stroke="none" x="1255" y="727" width="72.2353515625" height="57" opacity="0.2"/></g><g transform="translate(-870,-150) scale(1,1)"><rect fill="#ffffff" stroke="none" x="1248" y="720" width="72.2353515625" height="57"/></g><g transform="translate(-870,-150) scale(1,1)"><path fill="none" stroke="#000000" d="M 1248 720 L 1320.2353515625 720 L 1320.2353515625 777 L 1248 777 L 1248 720 Z Z" stroke-miterlimit="10"/></g><g transform="translate(-870,-150) scale(1,1)"><path fill="none" stroke="#000000" d="M 1248 745 L 1320.2353515625 745" stroke-miterlimit="10"/></g><g transform="translate(-870,-150) scale(1,1)"><path fill="none" stroke="#000000" d="M 1248 768 L 1320.2353515625 768" stroke-miterlimit="10"/></g><g transform="translate(-870,-150) scale(1,1)"><g><path fill="none" stroke="none"/><text fill="#000000" stroke="none" font-family="Arial" font-size="13px" font-style="normal" font-weight="bold" text-decoration="none" x="1280.502685546875" y="739.5">2</text></g></g><g transform="translate(-870,-150) scale(1,1)"><g><path fill="none" stroke="none"/><text fill="#000000" stroke="none" font-family="Arial" font-size="13px" font-style="normal" font-weight="normal" text-decoration="none" x="1253" y="762.5">+...</text></g></g><g transform="translate(-870,-150) scale(1,1)"><path fill="none" stroke="#000000" d="M 1048 424 L 1048 376" stroke-miterlimit="10"/></g><g transform="translate(-870,-150) scale(1,1)"><path fill="#FFFFFF" stroke="none" d="M 1052.2095177560159 386.16267485762415 L 1048 376 L 1043.7904822439841 386.16267485762415 L 1048 398"/></g><g transform="translate(-870,-150) scale(1,1)"><path fill="none" stroke="#000000" d="M 1052.2095177560159 386.16267485762415 L 1048 376 L 1043.7904822439841 386.16267485762415 L 1048 398 L 1052.2095177560159 386.16267485762415" stroke-miterlimit="10"/></g><g transform="translate(-870,-150) scale(1,1)"><path fill="none" stroke="#000000" d="M 1256 424 L 1256 376" stroke-miterlimit="10"/></g><g transform="translate(-870,-150) scale(1,1)"><path fill="#FFFFFF" stroke="none" d="M 1260.2095177560159 386.16267485762415 L 1256 376 L 1251.7904822439841 386.16267485762415 L 1256 398"/></g><g transform="translate(-870,-150) scale(1,1)"><path fill="none" stroke="#000000" d="M 1260.2095177560159 386.16267485762415 L 1256 376 L 1251.7904822439841 386.16267485762415 L 1256 398 L 1260.2095177560159 386.16267485762415" stroke-miterlimit="10"/></g><g transform="translate(-870,-150) scale(1,1)"><path fill="none" stroke="#000000" d="M 1153 624 L 1153 592 L 1256 592 L 1256 556" stroke-miterlimit="10"/></g><g transform="translate(-870,-150) scale(1,1)"><path fill="#FFFFFF" stroke="none" d="M 1260.2095177560159 566.1626748576241 L 1256 556 L 1251.7904822439841 566.1626748576241 L 1256 578"/></g><g transform="translate(-870,-150) scale(1,1)"><path fill="none" stroke="#000000" d="M 1260.2095177560159 566.1626748576241 L 1256 556 L 1251.7904822439841 566.1626748576241 L 1256 578 L 1260.2095177560159 566.1626748576241" stroke-miterlimit="10"/></g><g transform="translate(-870,-150) scale(1,1)"><path fill="none" stroke="#000000" d="M 1016 720 L 1016 656 L 1112 656" stroke-miterlimit="10"/></g><g transform="translate(-870,-150) scale(1,1)"><path fill="#FFFFFF" stroke="none" d="M 1101.837325142376 660.209517756016 L 1112 656 L 1101.837325142376 651.790482243984 L 1090 656"/></g><g transform="translate(-870,-150) scale(1,1)"><path fill="none" stroke="#000000" d="M 1101.837325142376 660.209517756016 L 1112 656 L 1101.837325142376 651.790482243984 L 1090 656 L 1101.837325142376 660.209517756016" stroke-miterlimit="10"/></g><g transform="translate(-870,-150) scale(1,1)"><path fill="none" stroke="#000000" d="M 1151 720 L 1151 681" stroke-miterlimit="10"/></g><g transform="translate(-870,-150) scale(1,1)"><path fill="#FFFFFF" stroke="none" d="M 1155.2095177560159 691.1626748576241 L 1151 681 L 1146.7904822439841 691.1626748576241 L 1151 703"/></g><g transform="translate(-870,-150) scale(1,1)"><path fill="none" stroke="#000000" d="M 1155.2095177560159 691.1626748576241 L 1151 681 L 1146.7904822439841 691.1626748576241 L 1151 703 L 1155.2095177560159 691.1626748576241" stroke-miterlimit="10"/></g><g transform="translate(-870,-150) scale(1,1)"><path fill="none" stroke="#000000" d="M 1280 720 L 1280 656 L 1195 656" stroke-miterlimit="10"/></g><g transform="translate(-870,-150) scale(1,1)"><path fill="#FFFFFF" stroke="none" d="M 1205.162674857624 651.790482243984 L 1195 656 L 1205.162674857624 660.209517756016 L 1217 656"/></g><g transform="translate(-870,-150) scale(1,1)"><path fill="none" stroke="#000000" d="M 1205.162674857624 651.790482243984 L 1195 656 L 1205.162674857624 660.209517756016 L 1217 656 L 1205.162674857624 651.790482243984" stroke-miterlimit="10"/></g></g></svg>